<svg xmlns="http://www.w3.org/2000/svg" viewBox="0 0 125.56 125.56"><defs><style>.cls-1{fill:#588664;}.cls-2{fill:#305334;}.cls-3{fill:#1b253a;}.cls-4{fill:#414a5d;}.cls-5{fill:#eacf33;}.cls-6{fill:#e4c232;}.cls-7{fill:#cabab3;}.cls-8{fill:#fffff4;}.cls-9{fill:#f1f4f4;}.cls-10{fill:#465d6f;}.cls-11{fill:#be3f31;}.cls-12{fill:#162739;}</style></defs><g id="Capa_2" data-name="Capa 2"><g id="Objects"><circle class="cls-1" cx="62.78" cy="62.78" r="62.78" transform="translate(-26.01 62.78) rotate(-45)"/><path class="cls-2" d="M123.11,45.4,103.49,33.23v.2H98.67V38H63.48V72.46H43.61V88c7.27,1.79,7.27,13.17,0,15v.74l32.31,20.46A62.79,62.79,0,0,0,123.11,45.4Z"/><polygon class="cls-3" points="77.87 100.25 77.87 93.79 74.09 93.79 74.09 100.25 71.73 100.25 71.73 104.03 80.23 104.03 80.23 100.25 77.87 100.25"/><rect class="cls-4" x="38.27" y="47.78" width="48.99" height="48.99" rx="6.3"/><rect class="cls-4" x="55.24" y="41.04" width="14.17" height="14.17"/><path class="cls-3" d="M81,47.78H62.68V62.29h.08V96.77H81a6.29,6.29,0,0,0,6.29-6.3V54.08A6.29,6.29,0,0,0,81,47.78Z"/><rect class="cls-3" x="62.68" y="41.04" width="6.74" height="14.17"/><path class="cls-5" d="M18.76,33.17V35a6.3,6.3,0,0,0,6.3,6.3H97.24a6.3,6.3,0,0,0,6.3-6.3V33.17Z"/><path class="cls-6" d="M62.68,33.17V41.3H97.24a6.3,6.3,0,0,0,6.3-6.3V33.17Z"/><polygon class="cls-4" points="49.72 99.92 49.72 93.47 45.94 93.47 45.94 99.92 43.58 99.92 43.58 103.7 52.08 103.7 52.08 99.92 49.72 99.92"/><path class="cls-7" d="M62.33,54.46A17.29,17.29,0,1,0,79.62,71.75,17.29,17.29,0,0,0,62.33,54.46Z"/><path class="cls-8" d="M62.33,56.12A15.63,15.63,0,1,0,78,71.75,15.63,15.63,0,0,0,62.33,56.12Z"/><path class="cls-9" d="M62.68,56.14V87.36a15.61,15.61,0,0,0,0-31.22Z"/><path class="cls-10" d="M74.86,83.53a.53.53,0,0,1,0,.75h0a.53.53,0,0,1-.75,0L72,82.2a.53.53,0,0,1,0-.75h0a.53.53,0,0,1,.75,0Z"/><path class="cls-10" d="M51.7,81.35a.53.53,0,0,1,.75,0h0a.51.51,0,0,1,0,.74l-2.08,2.09a.53.53,0,0,1-.75,0h0a.53.53,0,0,1,0-.75Z"/><path class="cls-10" d="M74,59.05a.54.54,0,0,1,.75,0h0a.53.53,0,0,1,0,.75l-2.08,2.09a.54.54,0,0,1-.75,0h0a.53.53,0,0,1,0-.75Z"/><path class="cls-10" d="M52.61,61.28a.53.53,0,0,1,0,.75h0a.53.53,0,0,1-.75,0L49.78,60a.53.53,0,0,1,0-.75h0a.53.53,0,0,1,.75,0Z"/><path class="cls-10" d="M51.7,81.35a.53.53,0,0,1,.75,0h0a.51.51,0,0,1,0,.74l-2.08,2.09a.53.53,0,0,1-.75,0h0a.53.53,0,0,1,0-.75Z"/><path class="cls-10" d="M74,59.05a.54.54,0,0,1,.75,0h0a.53.53,0,0,1,0,.75l-2.08,2.09a.54.54,0,0,1-.75,0h0a.53.53,0,0,1,0-.75Z"/><path class="cls-10" d="M52.61,61.28a.53.53,0,0,1,0,.75h0a.53.53,0,0,1-.75,0L49.78,60a.53.53,0,0,1,0-.75h0a.53.53,0,0,1,.75,0Z"/><path class="cls-10" d="M62.85,89a.53.53,0,0,1-.53.54h0a.54.54,0,0,1-.53-.54V86a.53.53,0,0,1,.53-.53h0a.52.52,0,0,1,.53.53Z"/><path class="cls-10" d="M48,71a.53.53,0,0,1,.53.53h0a.53.53,0,0,1-.53.53h-3a.53.53,0,0,1-.53-.53h0a.53.53,0,0,1,.53-.53Z"/><path class="cls-10" d="M79.55,71a.53.53,0,0,1,.53.53h0a.53.53,0,0,1-.53.53h-3a.53.53,0,0,1-.53-.53h0A.53.53,0,0,1,76.6,71Z"/><path class="cls-10" d="M62.85,57.49a.53.53,0,0,1-.53.53h0a.53.53,0,0,1-.53-.53v-3a.53.53,0,0,1,.53-.53h0a.53.53,0,0,1,.53.53Z"/><path class="cls-10" d="M62.85,89a.53.53,0,0,1-.53.54h0a.54.54,0,0,1-.53-.54V86a.53.53,0,0,1,.53-.53h0a.52.52,0,0,1,.53.53Z"/><path class="cls-10" d="M51.7,81.35a.53.53,0,0,1,.75,0h0a.51.51,0,0,1,0,.74l-2.08,2.09a.53.53,0,0,1-.75,0h0a.53.53,0,0,1,0-.75Z"/><path class="cls-10" d="M74,59.05a.54.54,0,0,1,.75,0h0a.53.53,0,0,1,0,.75l-2.08,2.09a.54.54,0,0,1-.75,0h0a.53.53,0,0,1,0-.75Z"/><path class="cls-10" d="M52.61,61.28a.53.53,0,0,1,0,.75h0a.53.53,0,0,1-.75,0L49.78,60a.53.53,0,0,1,0-.75h0a.53.53,0,0,1,.75,0Z"/><polygon class="cls-11" points="62.96 71.11 61.57 72.51 53.93 63.41 62.96 71.11"/><path class="cls-12" d="M64,71.79A1.83,1.83,0,1,1,62.21,70,1.82,1.82,0,0,1,64,71.79Z"/><path class="cls-8" d="M63.44,71.79a1.24,1.24,0,1,1-1.23-1.23A1.23,1.23,0,0,1,63.44,71.79Z"/><path class="cls-12" d="M62.33,52.92A18.83,18.83,0,1,0,81.16,71.75,18.82,18.82,0,0,0,62.33,52.92Zm0,36.12A17.29,17.29,0,1,1,79.62,71.75,17.29,17.29,0,0,1,62.33,89Z"/></g></g></svg>