<svg xmlns="http://www.w3.org/2000/svg" viewBox="0 0 125.46 125.46"><defs><style>.cls-1{fill:#e29e35;}.cls-2{fill:#b0701c;}.cls-3{fill:#fffff4;}.cls-4{fill:#503324;}.cls-5{fill:#7e5d3f;}</style></defs><g id="Capa_2" data-name="Capa 2"><g id="Objects"><path class="cls-1" d="M125.46,62.73A62.73,62.73,0,1,1,62.73,0,62.74,62.74,0,0,1,125.46,62.73Z"/><path class="cls-2" d="M125,55,96.59,37.45v42.6H27.65l-1,19.64,38.66,25.7a62.72,62.72,0,0,0,60.17-62.66A64.34,64.34,0,0,0,125,55Z"/><path class="cls-3" d="M31.33,101.57a2.15,2.15,0,0,0,2.13,1.87h6.4A2.13,2.13,0,0,0,42,101.57Z"/><path class="cls-3" d="M42,36.61a2.15,2.15,0,0,1-2.15,2.15h-6.4a2.15,2.15,0,0,1-2.15-2.15h0a2.14,2.14,0,0,1,2.15-2.14h6.4A2.14,2.14,0,0,1,42,36.61Z"/><rect class="cls-4" x="24.08" y="37.04" width="77.43" height="64.69" rx="6.86"/><path class="cls-4" d="M75.37,40.14V32.3h0a4.69,4.69,0,0,0-2-3.62h0A8.68,8.68,0,0,0,68,26.91H57.56a9.22,9.22,0,0,0-5.45,1.67h0a4.16,4.16,0,0,0-1.9,3.23h0v7.35h-4.9V31.81h0a9,9,0,0,1,3.86-7.15h0A14.12,14.12,0,0,1,57.56,22H68a13.55,13.55,0,0,1,8.45,2.84h0a9.59,9.59,0,0,1,3.8,7.45h0v7.84h-4.9Z"/><rect class="cls-5" x="31.34" y="37.04" width="10.63" height="64.69"/><path class="cls-3" d="M94.2,36.61a2.15,2.15,0,0,1-2.15,2.15h-6.4a2.15,2.15,0,0,1-2.15-2.15h0a2.14,2.14,0,0,1,2.15-2.14h6.4a2.14,2.14,0,0,1,2.15,2.14Z"/><path class="cls-3" d="M83.52,101.57a2.15,2.15,0,0,0,2.13,1.87h6.4a2.15,2.15,0,0,0,2.13-1.87Z"/><rect class="cls-5" x="83.53" y="37.04" width="10.63" height="64.69"/></g></g></svg>