<svg xmlns="http://www.w3.org/2000/svg" viewBox="0 0 125.65 125.65"><defs><style>.cls-1{fill:#e17424;}.cls-2{fill:#d15a2f;}.cls-3{fill:#2f303b;}.cls-4{fill:#1d1e27;}.cls-5{fill:#fffff4;}.cls-6{fill:#e6e5cc;}.cls-7{fill:#64a6dc;}.cls-8{fill:#96233c;}.cls-9{fill:#e29523;}</style></defs><g id="Capa_2" data-name="Capa 2"><g id="Objects"><circle class="cls-1" cx="62.82" cy="62.82" r="62.82"/><path class="cls-2" d="M123.61,46.91,88.93,25.37l.65,56.28H67V102.1H34.32l35.87,23.1a62.84,62.84,0,0,0,53.42-78.29Z"/><path class="cls-3" d="M92.75,32.39V30.05a5,5,0,0,0-5-5H37.94a5,5,0,0,0-5,5v2.34Z"/><path class="cls-4" d="M87.7,25H62.45v7.38h30.3V30.05A5,5,0,0,0,87.7,25Z"/><path class="cls-5" d="M32.89,32.14V98.57a5,5,0,0,0,5,5.05H87.7a5,5,0,0,0,5-5.05V32.14Z"/><path class="cls-6" d="M62.71,32.14v71.48h25a5,5,0,0,0,5-5.05V32.14Z"/><rect class="cls-7" x="37.43" y="33.86" width="50.67" height="3.44"/><rect class="cls-7" x="37.55" y="40.24" width="50.56" height="12.27"/><rect class="cls-8" x="37.55" y="56.68" width="11.78" height="11.78"/><rect class="cls-9" x="56.93" y="56.68" width="11.78" height="11.78"/><rect class="cls-3" x="76.32" y="56.68" width="11.78" height="11.78"/><rect class="cls-7" x="37.43" y="73.37" width="11.81" height="3.44"/><rect class="cls-7" x="37.43" y="80.49" width="9.27" height="3.44"/><rect class="cls-7" x="37.55" y="87.69" width="5.64" height="3.44"/><rect class="cls-7" x="55.42" y="73.37" width="11.78" height="3.44"/><rect class="cls-7" x="55.42" y="80.49" width="7.77" height="3.44"/><rect class="cls-7" x="55.42" y="87.69" width="11.78" height="3.44"/><rect class="cls-7" x="37.38" y="94.97" width="50.72" height="3.44"/><rect class="cls-7" x="75.7" y="73.37" width="8.34" height="3.44"/><rect class="cls-7" x="75.7" y="80.49" width="12.4" height="3.44"/><rect class="cls-7" x="75.7" y="87.69" width="8.47" height="3.44"/></g></g></svg>